<svg width="339" height="48" viewBox="0 0 339 48" fill="none" xmlns="http://www.w3.org/2000/svg">
<rect x="0.5" y="0.5" width="338" height="47" rx="11.5" stroke="white" stroke-opacity="0.85"/>
<rect x="213" width="126" height="48" rx="12" fill="white"/>
<path d="M245.117 21.4205H246.81C246.759 19.5568 245.112 18.2045 242.748 18.2045C240.413 18.2045 238.623 19.5398 238.623 21.5455C238.623 23.1648 239.782 24.1136 241.651 24.6193L243.026 24.9943C244.271 25.3239 245.231 25.733 245.231 26.767C245.231 27.9034 244.146 28.6534 242.651 28.6534C241.299 28.6534 240.174 28.0511 240.072 26.7841H238.31C238.424 28.892 240.055 30.1932 242.663 30.1932C245.396 30.1932 246.969 28.7557 246.969 26.7841C246.969 24.6875 245.1 23.875 243.623 23.5114L242.487 23.2159C241.577 22.983 240.367 22.5568 240.373 21.4432C240.373 20.4545 241.276 19.7216 242.708 19.7216C244.043 19.7216 244.992 20.3466 245.117 21.4205ZM254.46 26.3807C254.465 27.8636 253.363 28.5682 252.408 28.5682C251.357 28.5682 250.63 27.8068 250.63 26.6193V21.2727H248.931V26.8239C248.931 28.9886 250.119 30.1136 251.795 30.1136C253.107 30.1136 253.999 29.4205 254.403 28.4886H254.494V30H256.164V21.2727H254.46V26.3807ZM258.583 30H260.242V28.642H260.384C260.691 29.1989 261.316 30.1705 262.907 30.1705C265.021 30.1705 266.555 28.4773 266.555 25.6534C266.555 22.8239 264.998 21.1591 262.89 21.1591C261.271 21.1591 260.685 22.1477 260.384 22.6875H260.282V18.3636H258.583V30ZM260.248 25.6364C260.248 23.8125 261.043 22.6023 262.526 22.6023C264.066 22.6023 264.839 23.9034 264.839 25.6364C264.839 27.3864 264.043 28.7216 262.526 28.7216C261.066 28.7216 260.248 27.4716 260.248 25.6364ZM275.002 23.4034C274.65 22.0455 273.587 21.1591 271.701 21.1591C269.729 21.1591 268.332 22.1989 268.332 23.7443C268.332 24.983 269.082 25.8068 270.718 26.1705L272.195 26.4943C273.036 26.6818 273.428 27.0568 273.428 27.6023C273.428 28.2784 272.707 28.8068 271.593 28.8068C270.576 28.8068 269.923 28.3693 269.718 27.5114L268.076 27.7614C268.36 29.3068 269.644 30.1761 271.604 30.1761C273.712 30.1761 275.173 29.0568 275.173 27.4773C275.173 26.2443 274.388 25.483 272.786 25.1136L271.4 24.7955C270.44 24.5682 270.025 24.2443 270.031 23.6534C270.025 22.983 270.752 22.5057 271.718 22.5057C272.775 22.5057 273.263 23.0909 273.462 23.6761L275.002 23.4034ZM280.717 30.1761C282.779 30.1761 284.114 28.9375 284.302 27.2386H282.648C282.433 28.1818 281.7 28.7386 280.728 28.7386C279.29 28.7386 278.364 27.5398 278.364 25.6364C278.364 23.767 279.308 22.5909 280.728 22.5909C281.808 22.5909 282.467 23.2727 282.648 24.0909H284.302C284.12 22.3295 282.683 21.1591 280.7 21.1591C278.239 21.1591 276.648 23.0114 276.648 25.6761C276.648 28.3068 278.183 30.1761 280.717 30.1761ZM286.119 30H287.817V24.6705C287.817 23.5284 288.698 22.7045 289.903 22.7045C290.255 22.7045 290.653 22.767 290.789 22.8068V21.1818C290.619 21.1591 290.283 21.142 290.067 21.142C289.045 21.142 288.17 21.7216 287.852 22.6591H287.761V21.2727H286.119V30ZM292.259 30H293.958V21.2727H292.259V30ZM293.117 19.9261C293.702 19.9261 294.191 19.4716 294.191 18.9148C294.191 18.358 293.702 17.8977 293.117 17.8977C292.526 17.8977 292.043 18.358 292.043 18.9148C292.043 19.4716 292.526 19.9261 293.117 19.9261ZM296.38 30H298.039V28.642H298.181C298.488 29.1989 299.113 30.1705 300.704 30.1705C302.817 30.1705 304.352 28.4773 304.352 25.6534C304.352 22.8239 302.795 21.1591 300.687 21.1591C299.067 21.1591 298.482 22.1477 298.181 22.6875H298.079V18.3636H296.38V30ZM298.045 25.6364C298.045 23.8125 298.84 22.6023 300.323 22.6023C301.863 22.6023 302.636 23.9034 302.636 25.6364C302.636 27.3864 301.84 28.7216 300.323 28.7216C298.863 28.7216 298.045 27.4716 298.045 25.6364ZM310.021 30.1761C311.924 30.1761 313.271 29.2386 313.657 27.8182L312.049 27.5284C311.742 28.3523 311.004 28.7727 310.038 28.7727C308.583 28.7727 307.606 27.8295 307.56 26.1477H313.765V25.5455C313.765 22.392 311.879 21.1591 309.901 21.1591C307.469 21.1591 305.867 23.0114 305.867 25.6932C305.867 28.4034 307.447 30.1761 310.021 30.1761ZM307.566 24.875C307.634 23.6364 308.532 22.5625 309.913 22.5625C311.231 22.5625 312.094 23.5398 312.1 24.875H307.566Z" fill="#2B2B39"/>
<path d="M25.3773 29H31.6017V27.9062H26.6102V24.446H31.204V23.3523H26.6102V19.9119H31.5222V18.8182H25.3773V29ZM33.7604 29H34.9337V24.2273C34.9337 23.1087 35.749 22.3182 36.6638 22.3182C37.5537 22.3182 38.1752 22.8999 38.1752 23.7699V29H39.3683V24.0284C39.3683 23.044 39.9848 22.3182 41.0587 22.3182C41.8939 22.3182 42.6098 22.7607 42.6098 23.8892V29H43.7831V23.8892C43.7831 22.0945 42.8186 21.2642 41.4564 21.2642C40.3627 21.2642 39.5622 21.7663 39.1695 22.5568H39.0899C38.7121 21.7415 38.0459 21.2642 37.0416 21.2642C36.0473 21.2642 35.3115 21.7415 34.9933 22.5568H34.8939V21.3636H33.7604V29ZM48.3505 29.179C49.6829 29.179 50.3789 28.4631 50.6176 27.9659H50.6772V29H51.8505V23.9688C51.8505 21.5426 50.0011 21.2642 49.0267 21.2642C47.8732 21.2642 46.5607 21.6619 45.9642 23.054L47.0778 23.4517C47.3363 22.8949 47.9478 22.2983 49.0664 22.2983C50.1453 22.2983 50.6772 22.87 50.6772 23.8494V23.8892C50.6772 24.456 50.1005 24.4062 48.7085 24.5852C47.2916 24.7692 45.7454 25.0824 45.7454 26.8324C45.7454 28.3239 46.8988 29.179 48.3505 29.179ZM48.5295 28.125C47.5948 28.125 46.9187 27.7074 46.9187 26.892C46.9187 25.9972 47.734 25.7188 48.6488 25.5994C49.146 25.5398 50.4784 25.4006 50.6772 25.1619V26.2358C50.6772 27.1903 49.9215 28.125 48.5295 28.125ZM54.167 29H55.3403V21.3636H54.167V29ZM54.7636 20.0909C55.221 20.0909 55.5988 19.733 55.5988 19.2955C55.5988 18.858 55.221 18.5 54.7636 18.5C54.3062 18.5 53.9284 18.858 53.9284 19.2955C53.9284 19.733 54.3062 20.0909 54.7636 20.0909ZM58.8376 18.8182H57.6643V29H58.8376V18.8182ZM65.8508 29L66.8749 26.1165H70.9914L72.0155 29H73.3081L69.5695 18.8182H68.2968L64.5581 29H65.8508ZM67.2627 25.0227L68.8934 20.429H68.9729L70.6036 25.0227H67.2627ZM77.7935 29.1591C79.2651 29.1591 79.7623 28.2443 80.0208 27.8267H80.16V29H81.2935V18.8182H80.1202V22.5767H80.0208C79.7623 22.179 79.3049 21.2642 77.8134 21.2642C75.8844 21.2642 74.552 22.7955 74.552 25.2017C74.552 27.6278 75.8844 29.1591 77.7935 29.1591ZM77.9526 28.1051C76.481 28.1051 75.7253 26.8125 75.7253 25.1818C75.7253 23.571 76.4611 22.3182 77.9526 22.3182C79.3844 22.3182 80.1401 23.4716 80.1401 25.1818C80.1401 26.9119 79.3645 28.1051 77.9526 28.1051ZM86.6638 29.1591C88.1354 29.1591 88.6326 28.2443 88.8911 27.8267H89.0303V29H90.1638V18.8182H88.9905V22.5767H88.8911C88.6326 22.179 88.1752 21.2642 86.6837 21.2642C84.7547 21.2642 83.4224 22.7955 83.4224 25.2017C83.4224 27.6278 84.7547 29.1591 86.6638 29.1591ZM86.8229 28.1051C85.3513 28.1051 84.5957 26.8125 84.5957 25.1818C84.5957 23.571 85.3314 22.3182 86.8229 22.3182C88.2547 22.3182 89.0104 23.4716 89.0104 25.1818C89.0104 26.9119 88.2349 28.1051 86.8229 28.1051ZM92.6506 29H93.8239V24.1676C93.8239 23.1335 94.6393 22.3778 95.7529 22.3778C96.0661 22.3778 96.3893 22.4375 96.4688 22.4574V21.2642C96.3346 21.2543 96.0263 21.2443 95.8523 21.2443C94.9375 21.2443 94.1421 21.7614 93.8637 22.517H93.7841V21.3636H92.6506V29ZM101.004 29.1591C102.555 29.1591 103.689 28.3835 104.046 27.2301L102.913 26.9119C102.615 27.7074 101.924 28.1051 101.004 28.1051C99.6268 28.1051 98.6772 27.2152 98.6225 25.5795H104.166V25.0824C104.166 22.2386 102.475 21.2642 100.885 21.2642C98.8164 21.2642 97.4442 22.8949 97.4442 25.2415C97.4442 27.5881 98.7965 29.1591 101.004 29.1591ZM98.6225 24.5653C98.702 23.3771 99.5422 22.3182 100.885 22.3182C102.157 22.3182 102.973 23.2727 102.973 24.5653H98.6225ZM111.535 23.0739C111.167 21.9901 110.342 21.2642 108.83 21.2642C107.219 21.2642 106.026 22.179 106.026 23.4716C106.026 24.5256 106.653 25.2315 108.055 25.5597L109.327 25.858C110.098 26.0369 110.461 26.4048 110.461 26.9318C110.461 27.5881 109.765 28.125 108.671 28.125C107.712 28.125 107.11 27.7124 106.901 26.892L105.788 27.1705C106.061 28.468 107.13 29.1591 108.691 29.1591C110.466 29.1591 111.674 28.1896 111.674 26.8722C111.674 25.8082 111.008 25.1371 109.646 24.804L108.512 24.5256C107.607 24.3018 107.199 23.9986 107.199 23.4119C107.199 22.7557 107.896 22.2784 108.83 22.2784C109.854 22.2784 110.277 22.8452 110.481 23.3722L111.535 23.0739ZM119.024 23.0739C118.656 21.9901 117.831 21.2642 116.32 21.2642C114.709 21.2642 113.516 22.179 113.516 23.4716C113.516 24.5256 114.142 25.2315 115.544 25.5597L116.817 25.858C117.587 26.0369 117.95 26.4048 117.95 26.9318C117.95 27.5881 117.254 28.125 116.161 28.125C115.201 28.125 114.599 27.7124 114.391 26.892L113.277 27.1705C113.55 28.468 114.619 29.1591 116.18 29.1591C117.955 29.1591 119.163 28.1896 119.163 26.8722C119.163 25.8082 118.497 25.1371 117.135 24.804L116.001 24.5256C115.097 24.3018 114.689 23.9986 114.689 23.4119C114.689 22.7557 115.385 22.2784 116.32 22.2784C117.344 22.2784 117.766 22.8452 117.97 23.3722L119.024 23.0739Z" fill="#717179"/>
</svg>
