<svg xmlns="http://www.w3.org/2000/svg" xmlns:xlink="http://www.w3.org/1999/xlink" viewBox="0 0 66 66"><defs><style>.cls-1{fill:url(#Безымянный_градиент);}.cls-2{fill:#fff;fill-rule:evenodd;}</style><linearGradient id="Безымянный_градиент" x1="16.55" y1="88.01" x2="48.05" y2="22.01" gradientTransform="matrix(1, 0, 0, -1, 0, 86.55)" gradientUnits="userSpaceOnUse"><stop offset="0" stop-color="#ffd085"/><stop offset="1" stop-color="#ffaf2e"/></linearGradient></defs><title>Ресурс 1</title><g id="Слой_2" data-name="Слой 2"><g id="Слой_1-2" data-name="Слой 1"><rect class="cls-1" width="66" height="66" rx="24"/><path class="cls-2" d="M19,16a3,3,0,0,0-3,3v2.35h6.07V19A3,3,0,0,0,19,16ZM45.08,43.57V20a4,4,0,0,0-4-4H22.23a4.36,4.36,0,0,1,1.22,3V47a3.09,3.09,0,0,0,2.88,3.12,3,3,0,0,0,3.19-3V43.58H45.08ZM29.14,38.5H39.81v1.85H29.14Zm0-4.53H39.81v1.85H29.14Zm0-4.53H39.81v1.84H29.14Zm0-4.53H39.81v1.84H29.14Zm0-4.53H39.81v1.84H29.14ZM30.9,45v2.16a4.42,4.42,0,0,1-1.21,3H47a3,3,0,0,0,3-3V45Z"/></g></g></svg>