<svg xmlns="http://www.w3.org/2000/svg" xmlns:xlink="http://www.w3.org/1999/xlink" viewBox="0 0 66 66"><defs><style>.cls-1{fill:url(#Безымянный_градиент);}.cls-2{fill:#fff;}</style><linearGradient id="Безымянный_градиент" x1="16.55" y1="88.01" x2="48.05" y2="22.01" gradientTransform="matrix(1, 0, 0, -1, 0, 86.55)" gradientUnits="userSpaceOnUse"><stop offset="0" stop-color="#5ca1fe"/><stop offset="1" stop-color="#217bf4"/></linearGradient></defs><title>Ресурс 1</title><g id="Слой_2" data-name="Слой 2"><g id="Слой_1-2" data-name="Слой 1"><rect class="cls-1" width="66" height="66" rx="24"/><path class="cls-2" d="M24.29,23.86,26.44,26a3.59,3.59,0,0,1,1.12-2,3.86,3.86,0,0,1,5.2-.05l.26.27A3.68,3.68,0,0,1,34,26.64a1.48,1.48,0,0,1,0,.49,3.69,3.69,0,0,1-1.07,2.24,3.62,3.62,0,0,1-2,1L33,32.55l2.6-2.6c.05,0,.05,0,.09,0h.23a.29.29,0,0,1,.18.27,3,3,0,0,0,.94,2.19,3.15,3.15,0,0,0,2.28.94h0a4,4,0,0,0,.76-.09,2.89,2.89,0,0,0,1.52-.89,3.28,3.28,0,0,0,.76-2.91A3.4,3.4,0,0,0,41.67,28a3,3,0,0,0-.76-.58,6.72,6.72,0,0,0-.81-.31C40,27,39.83,27,39.7,27h-.31a.29.29,0,0,1-.27-.18.4.4,0,0,1,0-.32l2.6-2.59L34.5,16.6a2.11,2.11,0,0,0-2.95,0Z"/><path class="cls-2" d="M49.42,31.52l-7.26-7.26L40,26.42a3.75,3.75,0,0,1,2.06,6.27,3.69,3.69,0,0,1-2.69,1.21,3.54,3.54,0,0,1-2.73-1.12,3.69,3.69,0,0,1-1-2L33.43,33,36,35.6a.28.28,0,0,1,0,.31.32.32,0,0,1-.27.18,3.12,3.12,0,0,0-2.2.94,3.26,3.26,0,0,0-.94,2.33,3.13,3.13,0,0,0,1,2.29,1.9,1.9,0,0,0,.68.44,3.26,3.26,0,0,0,3.71-.49,3,3,0,0,0,1-2.24.32.32,0,0,1,.18-.27.39.39,0,0,1,.31,0l2.6,2.6,7.26-7.26A2.11,2.11,0,0,0,50,33,2,2,0,0,0,49.42,31.52Z"/><path class="cls-2" d="M39.61,40a3.65,3.65,0,0,1-1.12,2,3.86,3.86,0,0,1-5.2,0,3.69,3.69,0,0,1-1.21-2.69,4.06,4.06,0,0,1,.63-2.15,3,3,0,0,1,.49-.58,3.63,3.63,0,0,1,2-1L33,33.4,30.42,36a.22.22,0,0,1-.31.09.29.29,0,0,1-.18-.27A3.08,3.08,0,0,0,29,33.63a3.2,3.2,0,0,0-2.33-.94h-.31A3.17,3.17,0,0,0,23.75,37s0,.09,0,.14.05.09.05.13a2.64,2.64,0,0,0,.54.76,3,3,0,0,0,2.24,1,.32.32,0,0,1,.27.18.39.39,0,0,1-.05.31l-2.6,2.6L31.5,49.4a2.13,2.13,0,0,0,3,0l7.25-7.26Z"/><path class="cls-2" d="M16.63,34.48l7.25,7.26L26,39.58a3.61,3.61,0,0,1-2-1.11,3.86,3.86,0,0,1-.05-5.2,3.73,3.73,0,0,1,5.42-.09,3.63,3.63,0,0,1,1,2L32.57,33,30,30.4a.28.28,0,0,1-.05-.31.32.32,0,0,1,.27-.18A3.12,3.12,0,0,0,32.4,29a1,1,0,0,1,.22-.23,3.16,3.16,0,0,0-.31-4.34,3.19,3.19,0,0,0-4.35,0,3.06,3.06,0,0,0-1,2.24.28.28,0,0,1-.17.27.4.4,0,0,1-.32,0l-2.6-2.6-7.25,7.21a2.05,2.05,0,0,0,0,3Z"/></g></g></svg>