<svg xmlns="http://www.w3.org/2000/svg" xmlns:xlink="http://www.w3.org/1999/xlink" viewBox="0 0 66 66"><defs><style>.cls-1{fill:url(#Безымянный_градиент);}.cls-2{fill:#fff;fill-rule:evenodd;}</style><linearGradient id="Безымянный_градиент" x1="16.55" y1="84.01" x2="48.05" y2="18.01" gradientTransform="matrix(1, 0, 0, -1, 0, 82.55)" gradientUnits="userSpaceOnUse"><stop offset="0" stop-color="#ff858a"/><stop offset="1" stop-color="#f04148"/></linearGradient></defs><title>Ресурс 1</title><g id="Слой_2" data-name="Слой 2"><g id="Слой_1-2" data-name="Слой 1"><rect class="cls-1" width="66" height="66" rx="24"/><path class="cls-2" d="M24,16a4,4,0,0,0-4,4V46a4,4,0,0,0,4,4H42.79a4,4,0,0,0,4-4V20a4,4,0,0,0-4-4Zm2.89,4.34a2.53,2.53,0,1,0,2.53,2.53A2.53,2.53,0,0,0,26.87,20.34ZM24.34,33a2.53,2.53,0,1,1,2.53,2.53A2.53,2.53,0,0,1,24.34,33Zm2.53,7.6a2.53,2.53,0,1,0,2.53,2.53A2.53,2.53,0,0,0,26.87,40.6Zm7.24-18.81a1.09,1.09,0,1,0,0,2.17h8.68a1.09,1.09,0,0,0,0-2.17ZM33,33a1.09,1.09,0,0,1,1.09-1.09h8.68a1.09,1.09,0,0,1,0,2.18H34.11A1.09,1.09,0,0,1,33,33Zm1.09,9a1.09,1.09,0,1,0,0,2.17h8.68a1.09,1.09,0,0,0,0-2.17Z"/></g></g></svg>