<svg xmlns="http://www.w3.org/2000/svg" xmlns:xlink="http://www.w3.org/1999/xlink" viewBox="0 0 66 66"><defs><style>.cls-1{fill:url(#Безымянный_градиент);}.cls-2{fill:#fff;fill-rule:evenodd;}</style><linearGradient id="Безымянный_градиент" x1="16.55" y1="84.01" x2="48.05" y2="18.01" gradientTransform="matrix(1, 0, 0, -1, 0, 82.55)" gradientUnits="userSpaceOnUse"><stop offset="0" stop-color="#ff858a"/><stop offset="1" stop-color="#f04148"/></linearGradient></defs><title>Ресурс 1</title><g id="Слой_2" data-name="Слой 2"><g id="Слой_1-2" data-name="Слой 1"><rect class="cls-1" width="66" height="66" rx="24"/><path class="cls-2" d="M33.19,33.75A4.79,4.79,0,1,0,28.41,29,4.78,4.78,0,0,0,33.19,33.75Z"/><path class="cls-2" d="M37.35,33.21a6,6,0,0,1-8.31,0c-.19,0-.37-.09-.55-.11a2.26,2.26,0,0,0-.52,0,3.71,3.71,0,0,0-.49.14,3.24,3.24,0,0,0-.62.29,2.85,2.85,0,0,0-.83.74,6.65,6.65,0,0,0-.81,1.52,10.56,10.56,0,0,0-.6,2.05,11.42,11.42,0,0,0-.16,1.88,6.41,6.41,0,0,0,0,1.2,2.18,2.18,0,0,0,.38,1,3.18,3.18,0,0,0,1,.9,3.88,3.88,0,0,0,1.53.51,19.71,19.71,0,0,0,2.47.09h6.68A19.63,19.63,0,0,0,39,43.31a3.83,3.83,0,0,0,1.53-.51,3.34,3.34,0,0,0,1-.9,2.28,2.28,0,0,0,.37-1,7.25,7.25,0,0,0,0-1.2,12.63,12.63,0,0,0-.16-1.88,11.3,11.3,0,0,0-.6-2.05,6.65,6.65,0,0,0-.81-1.52,3.45,3.45,0,0,0-2-1.17,2.17,2.17,0,0,0-.51,0A5.35,5.35,0,0,0,37.35,33.21Z"/><path class="cls-2" d="M38.29,31.32a4.79,4.79,0,1,0-.81-6.1A4.75,4.75,0,0,1,39,28.75,4.69,4.69,0,0,1,38.29,31.32Z"/><path class="cls-2" d="M27.71,31.32a4.79,4.79,0,1,1,.81-6.1A4.75,4.75,0,0,0,27,28.75,4.69,4.69,0,0,0,27.71,31.32Z"/><path class="cls-2" d="M45.41,32.21a6,6,0,0,1-4,1.66l.17.21a6.25,6.25,0,0,1,.81,1.52,11,11,0,0,1,.6,2,12.63,12.63,0,0,1,.16,1.88,7.25,7.25,0,0,1,0,1.2,2.23,2.23,0,0,1-.37,1,3,3,0,0,1-.68.7h2.54a19.63,19.63,0,0,0,2.47-.09,3.88,3.88,0,0,0,1.54-.51,3.18,3.18,0,0,0,1-.9,2.18,2.18,0,0,0,.38-1,6.41,6.41,0,0,0,0-1.2,11.42,11.42,0,0,0-.16-1.88,10.56,10.56,0,0,0-.6-2.05,6.65,6.65,0,0,0-.81-1.52,2.85,2.85,0,0,0-.83-.74,3,3,0,0,0-.63-.29,3.21,3.21,0,0,0-.48-.14,2.26,2.26,0,0,0-.52,0C45.78,32.12,45.6,32.17,45.41,32.21Z"/><path class="cls-2" d="M20.59,32.21a6,6,0,0,0,4,1.66l-.17.21a6.25,6.25,0,0,0-.81,1.52,11,11,0,0,0-.6,2,12.63,12.63,0,0,0-.16,1.88,7.25,7.25,0,0,0,0,1.2,2.23,2.23,0,0,0,.37,1,3,3,0,0,0,.68.7H21.41a19.63,19.63,0,0,1-2.47-.09,3.88,3.88,0,0,1-1.54-.51,3.18,3.18,0,0,1-1-.9,2.18,2.18,0,0,1-.38-1,6.41,6.41,0,0,1,0-1.2,11.42,11.42,0,0,1,.16-1.88,10.56,10.56,0,0,1,.6-2.05,6.65,6.65,0,0,1,.81-1.52,2.85,2.85,0,0,1,.83-.74,3,3,0,0,1,.63-.29,3.21,3.21,0,0,1,.48-.14,2.26,2.26,0,0,1,.52,0C20.22,32.12,20.4,32.17,20.59,32.21Z"/></g></g></svg>