<svg xmlns="http://www.w3.org/2000/svg" xmlns:xlink="http://www.w3.org/1999/xlink" viewBox="0 0 66 66"><defs><style>.cls-1{fill:url(#Безымянный_градиент);}.cls-2{fill:#fff;}</style><linearGradient id="Безымянный_градиент" x1="16.55" y1="88.01" x2="48.05" y2="22.01" gradientTransform="matrix(1, 0, 0, -1, 0, 86.55)" gradientUnits="userSpaceOnUse"><stop offset="0" stop-color="#ffd085"/><stop offset="1" stop-color="#ffaf2e"/></linearGradient></defs><title>Ресурс 1</title><g id="Слой_2" data-name="Слой 2"><g id="Слой_1-2" data-name="Слой 1"><rect class="cls-1" width="66" height="66" rx="24"/><path class="cls-2" d="M50,29.93v9.59a2.63,2.63,0,0,1-2.62,2.62h-.87v3.49a.84.84,0,0,1-.13.46,1,1,0,0,1-.37.33.88.88,0,0,1-.48.07.91.91,0,0,1-.45-.19l-5-4.16h-8.4a2.63,2.63,0,0,1-1.85-.77,2.6,2.6,0,0,1-.76-1.85v-.87h8.71a4.35,4.35,0,0,0,4.36-4.36v-7h5.23a2.6,2.6,0,0,1,1.85.76A2.65,2.65,0,0,1,50,29.93Zm-12.21,7H26l-5,5.8a.88.88,0,0,1-.44.27.77.77,0,0,1-.52,0,.93.93,0,0,1-.42-.31.89.89,0,0,1-.15-.5V36.91h-.87A2.63,2.63,0,0,1,16,34.29V22.09a2.63,2.63,0,0,1,2.62-2.62H37.79a2.63,2.63,0,0,1,2.62,2.62v12.2a2.63,2.63,0,0,1-2.62,2.62Zm-2.61-7a.89.89,0,0,0-.87-.87H22.1a.89.89,0,0,0-.87.87.85.85,0,0,0,.26.62.87.87,0,0,0,.61.26H34.31a.87.87,0,0,0,.61-.26A.85.85,0,0,0,35.18,29.93Zm0-4.36a.89.89,0,0,0-.87-.87H22.1a.87.87,0,0,0-.61,1.49.87.87,0,0,0,.61.26H34.31a.87.87,0,0,0,.61-.26A.84.84,0,0,0,35.18,25.57Z"/></g></g></svg>