<svg xmlns="http://www.w3.org/2000/svg" xmlns:xlink="http://www.w3.org/1999/xlink" viewBox="0 0 66 66"><defs><style>.cls-1{fill:url(#Безымянный_градиент);}.cls-2{fill:#fff;fill-rule:evenodd;}</style><linearGradient id="Безымянный_градиент" x1="16.55" y1="108.01" x2="48.05" y2="42.01" gradientTransform="matrix(1, 0, 0, -1, 0, 106.55)" gradientUnits="userSpaceOnUse"><stop offset="0" stop-color="#5ca1fe"/><stop offset="1" stop-color="#217bf4"/></linearGradient></defs><title>Ресурс 1</title><g id="Слой_2" data-name="Слой 2"><g id="Слой_1-2" data-name="Слой 1"><rect class="cls-1" width="66" height="66" rx="24"/><path class="cls-2" d="M27.63,33.3a6.37,6.37,0,1,0-6.36-6.36A6.37,6.37,0,0,0,27.63,33.3Z"/><path class="cls-2" d="M33.16,32.59a8,8,0,0,1-11,0,6.94,6.94,0,0,0-.74-.15,2.58,2.58,0,0,0-.68,0,3.34,3.34,0,0,0-.65.18,4.86,4.86,0,0,0-.83.39,3.7,3.7,0,0,0-1.11,1A8.82,8.82,0,0,0,17,36a14.55,14.55,0,0,0-.8,2.72,17.49,17.49,0,0,0-.21,2.5,8.6,8.6,0,0,0,0,1.59,3,3,0,0,0,.5,1.31,4.37,4.37,0,0,0,1.31,1.2,5.1,5.1,0,0,0,2,.68,28.26,28.26,0,0,0,3.28.11h8.89A28.26,28.26,0,0,0,35.36,46a5.1,5.1,0,0,0,2-.68,4.37,4.37,0,0,0,1.31-1.2,3,3,0,0,0,.5-1.31,8.6,8.6,0,0,0,0-1.59,16.28,16.28,0,0,0-.22-2.5A13.82,13.82,0,0,0,38.25,36a8.82,8.82,0,0,0-1.08-2,3.7,3.7,0,0,0-1.11-1,4.86,4.86,0,0,0-.83-.39,3.34,3.34,0,0,0-.65-.18,2.58,2.58,0,0,0-.68,0A6.94,6.94,0,0,0,33.16,32.59Z"/><path class="cls-2" d="M34.42,30.07A6.37,6.37,0,1,0,33.34,22a6.35,6.35,0,0,1,1.08,8.12Z"/><path class="cls-2" d="M43.89,31.26a8,8,0,0,1-5.34,2.2l.23.28a8.37,8.37,0,0,1,1.08,2,14.78,14.78,0,0,1,.8,2.72A16.36,16.36,0,0,1,40.87,41a8.6,8.6,0,0,1,0,1.59,2.85,2.85,0,0,1-.49,1.31,4.39,4.39,0,0,1-.91.92h3.39a28.26,28.26,0,0,0,3.28-.11,5.1,5.1,0,0,0,2-.68,4.38,4.38,0,0,0,1.31-1.2,2.87,2.87,0,0,0,.5-1.31A8.6,8.6,0,0,0,50,39.92a16.36,16.36,0,0,0-.21-2.51,15,15,0,0,0-.8-2.72,8.94,8.94,0,0,0-1.08-2,3.7,3.7,0,0,0-1.11-1,4.86,4.86,0,0,0-.83-.39,3.34,3.34,0,0,0-.65-.18,2.58,2.58,0,0,0-.68,0A6.94,6.94,0,0,0,43.89,31.26Z"/></g></g></svg>